<?xml version="1.0" encoding="UTF-8" standalone="no"?>
<svg width="17" height="17" viewBox="0 0 17 17" xmlns="http://www.w3.org/2000/svg">
<!--
<g id="dontcare">
<rect fill="#fff" stroke="#777" x="1" y="1" width="15" height="15" rx="3" stroke-width="2"/>
</g>
-->

<!--
<g id="dontwant">
<rect fill="indianred" x="1" y="1" width="15" height="15" rx="3"/>
<polygon fill="white" points="5,3 3,5 12,14 14,12"/>
<polygon fill="white" points="12,3 14,5 5,14 3,12"/>
</g>
-->

<g id="want">
<rect fill="white" x="1" y="1" width="15" height="15" rx="3"/>
<g transform="scale(0.84) translate(-1.85 -1.85)">
<!-- Path for the checkbox copied over from Material UI Icons at https://www.materialui.co/icon/check-box -->
<path fill="limegreen" d="M19 3H5c-1.11 0-2 .9-2 2v14c0 1.1.89 2 2 2h14c1.11 0 2-.9 2-2V5c0-1.1-.89-2-2-2zm-9 14l-5-5 1.41-1.41L10 14.17l7.59-7.59L19 8l-9 9z"/>
</g>
</g>

</svg>
