<?xml version="1.0" encoding="UTF-8" standalone="no"?>
<!-- Created with Inkscape (http://www.inkscape.org/) -->

<svg
   xmlns:dc="http://purl.org/dc/elements/1.1/"
   xmlns:cc="http://creativecommons.org/ns#"
   xmlns:rdf="http://www.w3.org/1999/02/22-rdf-syntax-ns#"
   xmlns:svg="http://www.w3.org/2000/svg"
   xmlns="http://www.w3.org/2000/svg"
   xmlns:sodipodi="http://sodipodi.sourceforge.net/DTD/sodipodi-0.dtd"
   xmlns:inkscape="http://www.inkscape.org/namespaces/inkscape"
   width="210mm"
   height="297mm"
   viewBox="0 0 210 297"
   version="1.1"
   id="svg8"
   inkscape:version="0.92.4 (5da689c313, 2019-01-14)"
   sodipodi:docname="region_2b.svg">
  <defs
     id="defs2">
    <clipPath
       id="clipPath831"
       clipPathUnits="userSpaceOnUse">
      <path
         inkscape:connector-curvature="0"
         id="path829"
         d="M 0,3707.259 H 3041.392 V 0 H 0 Z" />
    </clipPath>
  </defs>
  <sodipodi:namedview
     id="base"
     pagecolor="#ffffff"
     bordercolor="#666666"
     borderopacity="1.0"
     inkscape:pageopacity="0.0"
     inkscape:pageshadow="2"
     inkscape:zoom="0.35"
     inkscape:cx="408.86858"
     inkscape:cy="383.26149"
     inkscape:document-units="mm"
     inkscape:current-layer="layer1"
     showgrid="false"
     inkscape:window-width="1920"
     inkscape:window-height="1057"
     inkscape:window-x="1912"
     inkscape:window-y="-8"
     inkscape:window-maximized="1" />
  <metadata
     id="metadata5">
    <rdf:RDF>
      <cc:Work
         rdf:about="">
        <dc:format>image/svg+xml</dc:format>
        <dc:type
           rdf:resource="http://purl.org/dc/dcmitype/StillImage" />
        <dc:title></dc:title>
      </cc:Work>
    </rdf:RDF>
  </metadata>
  <g
     inkscape:label="Calque 1"
     inkscape:groupmode="layer"
     id="layer1">
    <g
       transform="matrix(0.05128029,0,0,-0.05128029,-5.6672758,192.6455)"
       inkscape:label="dvd-region-code-2-dvd-regionalcode-2-pal-seeklogo.com"
       id="g823">
      <g
         id="g825">
        <g
           clip-path="url(#clipPath831)"
           id="g827">
          <g
             transform="translate(980.6992,614.9463)"
             id="g833" />
          <g
             transform="translate(1426.915,545.3916)"
             id="g837" />
          <g
             transform="translate(1801.4072,870.4834)"
             id="g841" />
          <g
             transform="translate(680.6167,3409.1504)"
             id="g853">
            <path
               inkscape:connector-curvature="0"
               id="path855"
               style="fill:#000000;fill-opacity:1;fill-rule:evenodd;stroke:none"
               d="m 0,0 c -18.403,-3.772 -36.217,-10.024 -52.113,-16.733 -31.831,-13.434 -59.776,-31.58 -84.152,-53.073 -23.973,-21.139 -46.159,-45.264 -64.069,-73.152 -17.811,-27.738 -32.671,-60.136 -41.118,-96.104 -4.314,-18.369 -6.584,-38.536 -7.651,-59.766 -1.077,-21.506 -0.955,-44.018 -0.955,-66.938 -0.001,-320.645 0.002,-640.402 0,-960.552 0,-182.925 -0.786,-367.182 0.478,-547.451 0.305,-43.456 10.128,-81.412 23.429,-113.794 13.482,-32.832 31.402,-60.141 52.594,-84.628 21.008,-24.281 44.779,-46.783 72.674,-64.548 41.851,-26.651 92.091,-46.832 155.868,-49.726 21.703,-0.985 44.676,-0.479 68.371,-0.477 503.337,0.062 1006.912,0.453 1509.442,0.477 21.326,0 42.312,3.219 61.2,7.175 18.728,3.921 35.81,10.53 51.635,17.21 33.034,13.942 60.191,31.447 84.628,52.595 23.682,20.492 46.73,44.574 64.549,72.673 17.746,27.992 32.94,60.583 41.118,96.105 8.814,38.281 8.613,80.955 8.607,127.658 -0.049,457.892 0.047,914.988 0,1372.219 -0.01,67.156 3.893,140.8 -7.651,196.986 -3.818,18.585 -9.916,35.83 -16.735,52.117 -13.334,31.841 -31.204,60.01 -52.592,84.628 -31.581,36.349 -70.431,67.023 -117.619,87.974 -16.004,7.107 -32.95,13.996 -50.683,18.169 -18.222,4.289 -38.944,6.773 -60.243,8.129 -22.008,1.399 -45.27,0.478 -68.372,0.478 C 1113,7.651 655.413,7.65 198.422,7.651 152.543,7.651 106.576,9.332 61.2,7.173 39.688,6.148 19.346,3.966 0,0 m 27.732,105.188 c 24.676,1.32 49.619,0.479 74.588,0.479 h 1494.14 c 25.411,0 50.52,1.201 74.11,-0.479 23.023,-1.639 44.72,-4.647 65.023,-9.564 20.538,-4.969 39.912,-9.648 57.854,-16.733 69.878,-27.593 126.714,-73.98 169.256,-129.571 44.047,-57.558 73.725,-126.319 79.37,-219.46 1.481,-24.459 0.479,-49.646 0.477,-74.588 -0.031,-497.788 0.032,-996.148 0,-1494.137 0,-25.23 1.043,-50.242 -0.477,-74.111 -2.943,-46.134 -12.743,-86.911 -26.298,-122.878 -13.431,-35.631 -32.673,-66.58 -54.507,-95.148 -21.733,-28.44 -46.983,-53.057 -75.064,-74.108 -29.052,-21.785 -59.427,-40.518 -95.626,-54.029 -36.159,-13.493 -77.14,-22.511 -123.834,-25.341 -24.535,-1.484 -49.74,-0.477 -74.588,-0.475 -497.759,0.014 -996.572,-0.016 -1494.14,0 -25.379,0 -50.385,-1.145 -74.109,0.475 -93.171,6.363 -161.39,36.685 -218.503,80.326 -28.232,21.571 -53.051,47.128 -74.11,75.064 -21.718,28.813 -40.695,59.711 -54.028,95.626 -13.341,35.943 -21.956,77.531 -24.861,124.314 -1.521,24.46 -0.479,49.703 -0.479,74.588 -10e-4,497.59 0.001,996.475 0,1494.138 0,25.487 -1.138,50.413 0.479,74.11 1.609,23.618 4.936,44.801 9.562,65.023 4.711,20.593 9.713,39.808 16.735,57.854 13.738,35.314 32.607,66.645 54.506,95.146 21.71,28.257 46.742,53.483 74.587,74.588 57.285,43.419 126.059,73.866 219.937,78.891" />
          </g>
          <g
             transform="translate(2352.8867,2803.2778)"
             id="g857">
            <path
               inkscape:connector-curvature="0"
               id="path859"
               style="fill:#000000;fill-opacity:1;fill-rule:nonzero;stroke:none"
               d="m 0,0 h -200.852 l -3.186,6.405 c -2.145,6.367 -5.331,13.808 -9.543,22.321 -31.91,76.473 -70.149,146.621 -114.792,210.4 -19.142,29.764 -39.356,57.895 -60.599,84.473 -21.213,26.539 -43.503,51.45 -66.821,74.817 C -275.302,323.126 -122.817,194.276 -18.18,31.633 -12.003,21.429 -5.941,10.895 0,0 m 28.687,-51.011 c 4.259,-6.364 8.519,-15.954 12.77,-28.686 24.759,-49.564 44.992,-103.65 60.748,-162.21 9.472,-36.032 16.914,-72.894 22.179,-110.462 1.198,-9.911 2.275,-19.943 3.14,-30.2 1.793,-21.695 3.591,-43.35 5.403,-64.993 0.152,-3.832 0.28,-7.674 0.388,-11.519 h -244.881 c -4.3,70.109 -10.665,140.256 -19.142,210.402 -12.769,68.039 -30.835,134.964 -54.188,200.854 H 25.502 c 2.108,0 3.185,-1.075 3.185,-3.186 m 103.757,-482.3 c -5.193,-73.381 -17.093,-145.07 -35.726,-215.055 -0.657,-2.27 -1.321,-4.531 -1.987,-6.794 -6.064,-18.215 -12.159,-36.436 -18.219,-54.617 -1.55,-4.657 -3.168,-9.317 -4.844,-13.973 -5.7,-15.024 -11.756,-29.87 -18.178,-44.519 -3.494,-5.542 -6.98,-13.188 -10.451,-22.988 -0.738,-1.573 -1.487,-3.139 -2.234,-4.706 -1.527,-0.374 -2.34,-2.131 -2.492,-5.207 -1.203,-2.488 -2.421,-4.966 -3.645,-7.444 h -213.199 c 0,4.222 1.036,7.403 3.18,9.551 10.626,38.275 20.737,77.073 30.285,116.381 9.545,39.312 16.473,80.214 20.728,122.75 4.215,21.244 6.883,41.94 7.957,62.148 1.032,20.216 2.666,40.944 4.815,62.19 v 25.505 h 244.92 c -0.209,-7.767 -0.517,-15.506 -0.91,-23.222 M -10.382,-989.493 c -1.008,-1.602 -2.003,-3.215 -3.02,-4.806 -0.192,-0.308 -0.383,-0.614 -0.577,-0.914 -34.72,-54.312 -73.625,-103.02 -116.729,-146.118 -21.856,-24.607 -45.097,-47.832 -69.691,-69.693 -53.511,-45.973 -112.161,-86.136 -174.975,-119.526 -1.355,-0.683 -2.688,-1.404 -4.051,-2.085 -25.503,-12.773 -51.007,-24.474 -76.469,-35.099 53.116,53.158 100.941,113.718 143.476,181.756 21.244,33.984 40.904,68.519 58.964,103.613 18.065,35.05 34.539,70.664 49.416,106.787 2.111,2.111 3.186,4.22 3.186,6.368 0,2.153 1.036,5.335 3.182,9.592 0,2.108 1.032,3.179 3.185,3.179 H 9.265 c -6.335,-11.159 -12.883,-22.18 -19.647,-33.054 m -499.709,-363.873 c 0,-1.071 -1.071,-2.665 -3.218,-4.775 H -637.65 c 12.736,40.35 24.428,79.656 35.093,117.933 10.622,38.273 21.248,78.663 31.873,121.158 4.214,10.628 7.393,21.804 9.546,33.504 2.15,11.693 4.261,22.836 6.408,33.463 h 92.469 v 95.644 h 213.581 l -3.183,-3.179 c -29.76,-76.553 -65.884,-146.7 -108.382,-210.442 -40.425,-61.63 -89.282,-121.158 -146.661,-178.531 -2.143,-2.148 -3.185,-3.741 -3.185,-4.775 m -60.078,-54.631 c -31.637,-8.693 -63.922,-15.812 -96.778,-21.259 0.503,1.521 1.089,3.017 1.734,4.5 0.33,1.497 0.888,2.96 1.526,4.443 1.432,3.334 2.546,6.751 3.625,10.195 0.02,0.13 0.047,0.254 0.059,0.382 0.004,0.058 0.035,0.104 0.049,0.156 0.012,0.143 0.027,0.294 0.027,0.429 0.031,0 0.054,0.01 0.086,0.014 0.198,0.82 0.465,1.633 0.757,2.388 0.228,0.596 0.842,0.742 1.315,0.58 0.328,0.254 0.698,0.244 1.003,0.069 0,0.051 0.021,0.084 0.021,0.135 h 86.061 c -0.051,-0.053 -0.121,-0.086 -0.18,-0.141 0.434,-0.049 0.806,-0.336 0.746,-0.9 -0.039,-0.329 -0.035,-0.661 -0.051,-0.991 m -118.492,59.406 c 0,-4.259 -1.07,-6.366 -3.183,-6.366 v -3.184 h -264.589 c -27.656,74.37 -51.05,152.987 -70.149,235.904 -4.256,12.735 -7.441,24.991 -9.588,36.691 -2.15,11.693 -4.259,22.836 -6.366,33.463 h 439.979 c -6.363,-23.402 -12.772,-47.827 -19.139,-73.334 -6.364,-25.503 -12.769,-49.931 -19.134,-73.33 -8.516,-36.131 -21.25,-76.511 -38.237,-121.158 z m -31.867,-86.063 c 0,-0.848 -0.201,-1.497 -0.55,-1.99 -33.585,-3.621 -67.693,-5.529 -102.237,-5.599 -34.336,0.07 -68.24,1.951 -101.636,5.528 -2.014,5.92 -3.997,11.377 -5.981,16.384 -2.147,5.331 -4.254,10.107 -6.405,14.366 h 226.398 z m -261.621,5.797 c -27.074,4.555 -53.764,10.235 -80.012,17.01 l -5.881,5.882 h 76.513 c 4.258,0 6.407,-4.259 6.407,-12.777 0,-2.144 0.518,-3.733 1.59,-4.774 1.035,-1.072 1.591,-2.665 1.591,-4.772 h -0.461 c 0.108,-0.17 0.172,-0.379 0.253,-0.569 m -143.177,71.986 c -1.046,0.38 -1.989,1.042 -2.737,1.875 -0.184,0.01 -0.331,0.039 -0.537,0.039 -14.881,14.883 -29.243,29.763 -43.052,44.643 -13.846,14.879 -27.137,29.765 -39.868,44.642 -14.881,19.098 -28.686,38.238 -41.419,57.376 -12.771,19.098 -25.543,38.236 -38.276,57.376 -2.151,4.211 -4.258,7.958 -6.366,11.138 -2.15,3.185 -4.257,6.925 -6.367,11.181 -4.296,4.217 -6.964,7.96 -7.996,11.142 -1.076,3.183 -3.74,6.921 -7.96,11.181 -4.259,8.477 -8.515,16.987 -12.771,25.506 -4.258,8.512 -8.514,16.985 -12.733,25.503 -8.515,16.988 -16.47,33.461 -23.913,49.417 -7.438,15.917 -14.361,32.385 -20.728,49.413 h 178.529 c -6.366,-25.538 -9.549,-52.082 -9.549,-79.697 v -15.947 h 127.523 c 4.217,-12.78 7.398,-26.067 9.548,-39.875 2.15,-13.802 5.331,-28.128 9.588,-43.013 10.624,-36.122 21.25,-73.325 31.874,-111.603 10.622,-38.272 22.318,-75.44 35.093,-111.567 h -114.79 c -1.9,0 -2.882,0.433 -3.093,1.27 m -189.835,51.074 c -23.075,14.256 -45.904,29.732 -68.481,46.489 -11.979,8.229 -23.573,16.633 -34.825,25.198 -43.64,34.722 -84.183,73.171 -121.135,114.867 -4.433,5.34 -8.799,10.714 -13.024,16.147 -6.323,6.947 -12.381,13.948 -18.23,20.99 -10.962,13.701 -21.558,27.709 -31.768,42.016 -1.979,2.904 -3.924,5.812 -5.825,8.73 -10.968,16.835 -22.218,33.938 -33.701,51.287 -4.729,7.806 -9.343,15.688 -13.852,23.634 h 214.943 c 2.108,-4.257 3.183,-7.99 3.183,-11.179 0,-3.181 1.035,-6.926 3.184,-11.14 17.029,-36.127 34.021,-72.254 51.05,-108.382 16.988,-36.125 37.161,-71.221 60.556,-105.202 21.248,-36.164 43.569,-67.003 66.964,-92.468 6.367,-8.513 12.732,-16.51 19.098,-23.953 6.367,-7.441 12.773,-14.324 19.138,-20.69 4.15,-6.255 10.424,-13.568 18.729,-21.907 4.127,-2.59 7.382,-7.16 10.767,-10.307 4.242,-3.946 8.246,-8.135 11.692,-12.752 -48.212,19.197 -94.486,42.199 -138.463,68.622 m -366.32,397.37 c -0.623,1.254 -1.234,2.517 -1.85,3.773 v 2.409 c -0.519,0 -0.97,0.132 -1.363,0.377 -0.566,1.168 -1.132,2.332 -1.694,3.504 -0.104,0.731 -0.166,1.547 -0.166,2.488 -0.806,0.802 -1.509,1.606 -2.155,2.407 -49.91,105.486 -81.142,221.575 -89.446,344.025 -0.549,12.705 -0.826,25.818 -0.826,39.355 h 251.859 v -25.505 c 0,-4.259 0.518,-9.028 1.591,-14.363 1.037,-5.334 1.593,-10.106 1.593,-14.325 0,-10.662 0.517,-21.286 1.59,-31.909 1.036,-10.622 1.593,-21.247 1.593,-31.872 l 19.137,-124.34 c 6.368,-25.502 12.736,-51.526 19.099,-78.102 6.367,-26.575 13.809,-52.641 22.322,-78.109 h -219.951 c -0.508,0 -0.949,0.068 -1.333,0.187 m -96.343,492.217 c 9.374,129.005 44.198,250.883 99.488,360.646 l 1.372,1.371 v 1.346 c 0.851,1.674 1.7,3.353 2.561,5.022 h 220.614 l -3.186,-3.186 c -25.544,-76.512 -44.683,-155.133 -57.413,-235.904 -2.149,-23.397 -4.258,-45.2 -6.367,-65.373 -2.148,-20.212 -3.183,-40.902 -3.183,-62.149 -2.147,-6.407 -3.184,-17.029 -3.184,-31.91 v -12.734 h -251.859 c 0,14.219 0.394,28.511 1.157,42.871 m 582.261,812.695 v -1.146 h 9.549 c -55.268,-57.376 -103.094,-117.972 -143.438,-181.717 -19.136,-31.91 -39.35,-68.037 -60.597,-108.381 -10.622,-19.178 -19.139,-37.244 -25.505,-54.233 -4.258,-6.365 -8.515,-15.956 -12.732,-28.687 -2.148,-4.258 -3.184,-6.924 -3.184,-7.957 0,-1.077 -1.072,-3.739 -3.222,-7.959 0,-2.148 -1.074,-4.256 -3.184,-6.405 h -210.137 c 103.874,176.135 262.441,316.056 452.45,396.485 m 0,-632.392 v -15.954 h 54.19 c 0,-8.513 -0.554,-16.472 -1.589,-23.913 -1.077,-7.441 -1.595,-14.364 -1.595,-20.731 -2.149,-21.244 -3.182,-41.458 -3.182,-60.557 0,-19.138 -1.074,-38.276 -3.18,-57.375 v -44.644 h -328.377 c 2.108,4.218 3.185,9.548 3.185,15.955 0,42.497 2.625,83.912 7.957,124.301 5.291,40.385 12.216,81.847 20.729,124.379 4.218,19.098 9.549,38.751 15.915,58.966 6.366,20.172 12.773,39.829 19.138,58.967 2.148,4.254 3.741,8.513 4.816,12.772 1.035,4.218 2.624,8.475 4.773,12.73 v 3.186 h 270.998 c -36.166,-53.159 -57.412,-115.827 -63.778,-188.082 m -271,-427.206 c -4.256,25.461 -6.923,50.971 -7.957,76.471 -1.075,25.502 -2.668,51.013 -4.776,76.553 h 328.377 v -44.641 c 2.106,-21.25 3.18,-41.978 3.18,-62.192 0,-20.214 1.033,-41.975 3.182,-65.329 2.11,-19.141 3.703,-38.795 4.777,-59.008 1.033,-20.217 3.699,-40.898 7.995,-62.15 -8.512,-8.516 -17.028,-19.137 -25.501,-31.869 -14.882,-21.249 -27.653,-45.715 -38.277,-73.336 h -207.22 c -2.149,0 -4.258,1.039 -6.365,3.185 v 3.184 c -25.544,76.514 -44.682,156.211 -57.415,239.132 m 306.051,1013.808 c 4.259,4.257 7.444,7.998 9.593,11.181 2.106,3.183 5.291,6.883 9.546,11.141 4.259,4.256 7.999,7.439 11.18,9.588 3.187,2.107 6.883,5.291 11.143,9.55 0,2.109 2.107,3.184 6.366,3.184 h 108.423 c -14.881,-40.387 -28.169,-79.698 -39.869,-117.972 -11.697,-38.278 -22.876,-77.592 -33.46,-117.936 -4.258,-21.246 -8.517,-41.975 -12.773,-62.189 -4.257,-20.212 -8.515,-40.903 -12.731,-62.15 0,-4.255 -0.559,-7.998 -1.594,-11.18 -1.073,-3.183 -1.589,-6.925 -1.589,-11.14 0,-4.257 -1.077,-6.367 -3.184,-6.367 0,-4.296 -1.074,-6.405 -3.223,-6.405 h -270.958 c 0,2.149 0.515,3.742 1.59,4.814 1.035,1.035 1.592,2.625 1.592,4.774 14.882,36.127 31.353,71.183 49.417,105.201 18.063,33.982 38.754,67.999 62.148,102.018 10.624,16.987 21.766,32.387 33.462,46.234 11.699,13.808 23.913,29.202 36.684,46.232 6.369,6.368 12.735,13.252 19.102,20.691 6.365,7.442 12.772,14.365 19.135,20.731 m 115.124,95.087 34.761,6.968 c 0.848,0.425 1.621,0.775 2.386,1.117 8.715,1.715 17.471,3.324 26.27,4.801 -0.077,-4.02 -1.122,-7.07 -3.151,-9.138 0,-2.149 -1.076,-4.256 -3.225,-6.367 h -67.747 c 3.563,0.892 7.131,1.766 10.706,2.619 m 84.139,-71.176 c 1.075,3.184 2.666,6.927 4.816,11.184 0,4.215 1.032,6.365 3.179,6.365 v 3.184 h 251.864 c 4.218,0 7.399,-1.075 9.546,-3.184 v -6.365 c 8.516,-19.141 15.956,-38.278 22.325,-57.416 6.362,-19.14 12.774,-39.311 19.139,-60.557 4.216,-19.139 9.55,-38.796 15.915,-58.969 6.366,-20.21 11.694,-39.867 15.952,-59.005 4.258,-19.14 8.519,-38.277 12.773,-57.376 4.221,-19.138 8.479,-38.276 12.733,-57.375 -63.778,42.495 -140.293,62.664 -229.54,60.557 -91.391,2.107 -167.908,-19.138 -229.54,-63.739 12.733,70.107 28.689,140.253 47.826,210.4 6.365,21.248 12.732,41.421 19.1,60.559 6.367,19.136 12.77,39.351 19.136,60.598 2.111,4.219 3.7,7.958 4.776,11.139 m 28.728,74.924 c 1.032,2.149 1.589,4.258 1.589,6.406 2.112,2.109 3.183,4.215 3.183,6.365 0,2.111 1.036,3.183 3.184,3.183 l 1.166,1.167 c 7.166,0.754 14.356,1.421 21.57,2.018 h 2.77 c 0.83,0.164 1.637,0.281 2.463,0.433 19.639,1.513 39.447,2.432 59.406,2.749 h 27.75 c 30.384,-0.482 60.416,-2.384 90.047,-5.624 1.542,-3.444 2.768,-6.89 3.639,-10.332 1.033,-4.256 2.668,-8.514 4.815,-12.732 h -223.177 c 0,2.111 0.519,4.218 1.595,6.367 m 296.819,3.789 c 0.428,-0.194 0.838,-0.35 1.276,-0.569 8.476,-2.147 15.913,-3.777 22.28,-4.812 2.817,-0.476 5.884,-1.069 9.132,-1.75 4.146,-0.981 8.284,-1.99 12.409,-3.025 h -69.322 v 6.367 c -2.153,2.149 -3.23,3.738 -3.23,4.816 0,0.996 -1.022,2.528 -2.989,4.564 10.208,-1.697 20.353,-3.572 30.444,-5.591 m -347.83,-1339.604 c 1.035,0 1.591,1.031 1.591,3.18 21.249,33.98 81.807,92.426 181.712,175.349 48.861,40.342 90.84,76.472 125.937,108.381 35.05,31.872 64.298,61.637 87.69,89.286 h 41.42 c 0,-42.535 -1.069,-84.513 -3.183,-125.967 -2.146,-41.46 -5.329,-83.401 -9.549,-125.893 -4.301,-21.247 -6.966,-41.98 -7.997,-62.189 -1.074,-20.21 -3.74,-40.906 -7.958,-62.147 v -3.188 h -411.253 c 0,2.11 0.518,3.188 1.59,3.188 m -116.379,427.204 c 0,67.998 3.183,137.075 9.548,207.22 h 70.145 l 3.186,12.772 c 2.109,63.741 22.32,112.641 60.599,146.661 25.462,23.355 58.408,38.235 98.833,44.603 h 66.925 c 46.748,-6.368 79.695,-21.248 98.831,-44.603 31.873,-31.91 47.827,-75.481 47.827,-130.746 0,-63.741 -19.14,-121.116 -57.373,-172.126 -14.881,-21.283 -34.021,-42.533 -57.38,-63.781 z m 290.139,-51.008 c -36.168,-29.764 -74.444,-61.673 -114.793,-95.65 -70.147,-57.374 -124.339,-106.273 -162.615,-146.664 -4.256,16.991 -6.366,35.055 -6.366,54.195 0,19.136 -1.074,37.202 -3.182,54.23 -2.15,23.358 -3.183,45.681 -3.183,66.923 v 66.966 z m 312.418,51.008 v 73.331 c 21.248,44.644 31.868,97.757 31.868,159.394 0,70.149 -17.027,129.668 -51.008,178.531 h 280.593 c 0,-2.149 1.03,-4.256 3.177,-6.368 25.467,-76.513 44.604,-155.132 57.373,-235.903 4.218,-29.763 7.405,-58.494 9.554,-86.104 2.149,-27.613 3.222,-55.266 3.222,-82.881 z m -28.688,-430.392 c 6.365,38.238 11.139,77.032 14.323,116.343 3.18,39.309 6.924,78.103 11.179,116.382 0,21.246 0.519,41.936 1.595,62.146 1.03,20.217 1.591,41.978 1.591,65.37 v 19.143 h 334.779 v -15.953 c -2.15,-42.496 -5.371,-83.959 -9.587,-124.341 -4.26,-40.387 -11.698,-80.77 -22.323,-121.155 -4.26,-21.247 -9.036,-41.979 -14.367,-62.151 -5.331,-20.209 -11.141,-39.865 -17.503,-58.964 0,-2.152 -0.556,-4.299 -1.597,-6.41 -1.072,-2.148 -1.589,-4.254 -1.589,-6.366 l -3.183,-3.185 h -229.537 v 19.141 z m 84.467,1200.34 c 24.435,-28.728 47.313,-59.007 68.562,-90.878 46.747,-70.146 85.028,-139.218 114.785,-207.217 0,-2.147 0.522,-3.74 1.589,-4.776 1.041,-1.074 1.595,-3.739 1.595,-7.996 h -280.55 c -2.15,0 -3.22,1.073 -3.22,3.222 v 6.366 c 0,2.109 -0.558,3.699 -1.593,4.776 -1.072,1.033 -1.591,2.623 -1.591,4.775 -2.149,10.622 -3.744,20.729 -4.773,30.278 -1.078,9.549 -3.74,19.654 -7.959,30.318 -4.258,21.246 -8.519,41.42 -12.772,60.557 -4.257,19.1 -8.518,39.312 -12.728,60.561 -10.671,34.016 -20.773,66.964 -30.324,98.832 -9.552,31.873 -19.655,63.742 -30.276,95.654 h 117.971 c 29.758,-27.616 56.856,-55.786 81.284,-84.472 m -381.74,206.507 C -1376.97,517.206 -1825.733,68.495 -1825.733,-485.16 c 0,-553.488 448.763,-1002.363 1002.418,-1002.363 553.495,0 1002.366,448.875 1002.366,1002.363 0,553.655 -448.871,1002.366 -1002.366,1002.534" />
          </g>
        </g>
      </g>
    </g>
  </g>
</svg>
