<?xml version="1.0" encoding="utf-8"?>
<!-- Generator: Adobe Illustrator 14.0.0, SVG Export Plug-In . SVG Version: 6.00 Build 43363)  -->
<!DOCTYPE svg PUBLIC "-//W3C//DTD SVG 1.1//EN" "http://www.w3.org/Graphics/SVG/1.1/DTD/svg11.dtd">
<svg version="1.1" id="Layer_1" xmlns="http://www.w3.org/2000/svg" xmlns:xlink="http://www.w3.org/1999/xlink" x="0px" y="0px"
	 width="612px" height="792px" viewBox="0 0 612 792" enable-background="new 0 0 612 792" xml:space="preserve">
<g>
	<polygon fill-rule="evenodd" clip-rule="evenodd" fill="#FFFFFF" points="209,300 401.756,300 401.756,492.756 209,492.756 
		209,300 	"/>
	<path fill-rule="evenodd" clip-rule="evenodd" d="M287.995,376.683h1.598c10.791,0,13.668-6.66,13.908-11.702h9.192v67.55h-11.19
		v-46.524h-13.508V376.683L287.995,376.683z"/>
	<path fill-rule="evenodd" clip-rule="evenodd" d="M344.832,396.803c0,22.07-9.264,42.734-24.779,55.275l1.312,2.553
		c25.89-7.168,43.972-30.947,43.972-57.828c0-26.879-18.082-50.659-43.972-57.827l-1.312,2.551
		C335.568,354.069,344.832,374.733,344.832,396.803L344.832,396.803z M320.582,341.799c24.626,6.817,41.824,29.436,41.824,55.003
		c0,25.568-17.198,48.186-41.824,55.004l1.313,2.551c16.197-13.094,25.866-34.609,25.866-57.555
		c0-22.946-9.669-44.461-25.866-57.554L320.582,341.799L320.582,341.799z"/>
	<path fill-rule="evenodd" clip-rule="evenodd" d="M321.887,396.803c0,20.809-3.748,40.705-10.838,57.539l-0.979,2.324l2.504-0.303
		c2.967-0.355,5.924-0.939,8.79-1.732l0.293-0.082l0.237-0.191c16.197-13.094,25.866-34.609,25.866-57.555
		c0-22.946-9.669-44.461-25.866-57.554l-0.237-0.191l-0.293-0.082c-2.866-0.793-5.823-1.377-8.789-1.734l-2.504-0.302l0.978,2.324
		C318.14,356.098,321.887,375.996,321.887,396.803L321.887,396.803z M312.225,340.15c2.821,0.34,5.633,0.895,8.357,1.649
		l-0.529-0.272c15.516,12.542,24.779,33.206,24.779,55.276c0,22.07-9.264,42.734-24.779,55.275l0.529-0.271
		c-2.725,0.756-5.536,1.311-8.359,1.648l1.526,2.023c7.239-17.189,11.067-37.479,11.067-58.676c0-21.194-3.826-41.484-11.066-58.675
		L312.225,340.15L312.225,340.15z"/>
	<path fill-rule="evenodd" clip-rule="evenodd" d="M266.302,396.803c0-22.216,9.355-42.958,25.025-55.482l-1.286-2.561
		c-26.337,6.916-44.731,30.784-44.731,58.042c0,27.26,18.394,51.127,44.731,58.043l1.286-2.561
		C275.657,439.76,266.302,419.02,266.302,396.803L266.302,396.803z M290.785,452.014c-25.05-6.578-42.546-29.281-42.546-55.211
		c0-25.928,17.496-48.632,42.546-55.21l-1.287-2.561c-16.359,13.076-26.125,34.672-26.125,57.771c0,23.1,9.767,44.695,26.125,57.771
		L290.785,452.014L290.785,452.014z"/>
	<path fill-rule="evenodd" clip-rule="evenodd" d="M298.07,337.241c-2.756,0.332-5.458,0.843-8.029,1.519l-0.3,0.079l-0.243,0.193
		c-16.359,13.076-26.125,34.672-26.125,57.771c0,23.1,9.767,44.695,26.125,57.771l0.243,0.193l0.3,0.078
		c2.571,0.676,5.273,1.188,8.029,1.52l2.504,0.303l-0.979-2.326c-7.09-16.834-10.837-36.73-10.837-57.539
		c0-20.808,3.748-40.705,10.837-57.539l0.979-2.324L298.07,337.241L298.07,337.241z M285.83,396.803
		c0,21.195,3.827,41.484,11.066,58.676l1.525-2.021c-2.625-0.316-5.194-0.803-7.636-1.443l0.542,0.271
		c-15.67-12.525-25.025-33.266-25.025-55.482c0-22.216,9.355-42.958,25.025-55.482l-0.542,0.272
		c2.442-0.641,5.012-1.127,7.636-1.443l-1.525-2.022C289.656,355.318,285.83,375.608,285.83,396.803L285.83,396.803z"/>
	<path fill-rule="evenodd" clip-rule="evenodd" d="M312.575,337.242c-2.522-0.304-4.895-0.452-7.254-0.452
		c-2.329,0-4.769,0.152-7.25,0.451l-0.844,0.102l-0.33,0.784c-7.24,17.191-11.066,37.481-11.066,58.676
		c0,21.195,3.827,41.484,11.066,58.676l0.33,0.785l0.844,0.102c2.482,0.299,4.922,0.451,7.25,0.451c2.36,0,4.732-0.148,7.253-0.453
		l0.844-0.1l0.331-0.785c7.239-17.189,11.067-37.479,11.067-58.676c0-21.194-3.826-41.484-11.066-58.675l-0.331-0.784
		L312.575,337.242L312.575,337.242z M321.887,396.803c0,20.809-3.748,40.705-10.838,57.539l1.174-0.887
		c-2.402,0.291-4.66,0.432-6.902,0.432c-2.212,0-4.534-0.145-6.899-0.43l1.174,0.885c-7.09-16.834-10.837-36.73-10.837-57.539
		c0-20.808,3.748-40.705,10.837-57.539l-1.174,0.886c2.399-0.29,4.656-0.43,6.899-0.43c2.242,0,4.5,0.14,6.904,0.43l-1.176-0.886
		C318.14,356.098,321.887,375.996,321.887,396.803L321.887,396.803z"/>
	<polygon fill-rule="evenodd" clip-rule="evenodd" points="252.857,370.748 356.841,370.748 356.841,367.819 252.857,367.819 
		252.857,370.748 	"/>
	<polygon fill-rule="evenodd" clip-rule="evenodd" points="246.774,398.268 363.871,398.268 363.871,395.339 246.774,395.339 
		246.774,398.268 	"/>
	<polygon fill-rule="evenodd" clip-rule="evenodd" points="253.833,424.938 357.329,424.938 357.329,422.008 253.833,422.008 
		253.833,424.938 	"/>
	<polygon fill-rule="evenodd" clip-rule="evenodd" points="284.101,451.787 325.597,451.787 325.597,448.857 284.101,448.857 
		284.101,451.787 	"/>
	<polygon fill-rule="evenodd" clip-rule="evenodd" points="283.125,344.386 326.085,344.386 326.085,341.457 283.125,341.457 
		283.125,344.386 	"/>
	<path fill-rule="evenodd" clip-rule="evenodd" d="M374.213,439.166c0,14.496-11.746,26.291-26.186,26.291h-85.299
		c-14.438,0-26.185-11.795-26.185-26.291V353.59c0-14.497,11.747-26.291,26.185-26.291h85.299c14.439,0,26.186,11.793,26.186,26.291
		V439.166L374.213,439.166L374.213,439.166z M387.882,353.59c0-22.034-17.879-39.96-39.854-39.96h-85.299
		c-21.976,0-39.854,17.926-39.854,39.96v85.576c0,22.033,17.878,39.959,39.854,39.959h85.299c21.976,0,39.854-17.926,39.854-39.959
		V353.59L387.882,353.59z"/>
</g>
</svg>
