<?xml version="1.0" encoding="utf-8"?>
<!-- Generator: Adobe Illustrator 15.0.2, SVG Export Plug-In  -->
<!DOCTYPE svg PUBLIC "-//W3C//DTD SVG 1.1//EN" "http://www.w3.org/Graphics/SVG/1.1/DTD/svg11.dtd" [
	<!ENTITY ns_flows "http://ns.adobe.com/Flows/1.0/">
]>
<svg version="1.1"
	 xmlns="http://www.w3.org/2000/svg" xmlns:xlink="http://www.w3.org/1999/xlink" xmlns:a="http://ns.adobe.com/AdobeSVGViewerExtensions/3.0/"
	 x="0px" y="0px" width="350px" height="350px" viewBox="-33.142 -10.256 350 350" enable-background="new -33.142 -10.256 350 350"
	 xml:space="preserve">
<defs>
</defs>
<circle cx="143.404" cy="164.434" r="98.15"/>
<path fill="#FFFFFF" d="M103.958,103.318h46.75c26.35,0,37.57,15.3,37.57,32.129c0,12.41-6.801,21.25-17.851,24.82v0.34
	c10.37,2.55,21.08,10.37,21.08,28.56c0,17.34-12.58,35.189-41.989,35.189h-45.56V103.318z M136.258,150.577h9.01
	c7.989,0,11.56-4.08,11.56-9.86c0-7.65-5.101-10.2-14.96-10.2h-5.61V150.577z M136.258,196.137h10.709
	c7.65,0,11.221-4.76,11.221-11.22c0-7.819-4.08-10.88-13.09-10.88h-8.84V196.137z"/>
<g>
	<g>
		<path fill="none" stroke="#FFFFFF" stroke-width="5" stroke-miterlimit="10" d="M59.002,63.719c55.628,0.004,111.255,0,166.883,0
			c42.168,61.353,42.171,140.555,0,201.906c-55.628,0-111.255,0-166.883,0C16.836,204.257,16.845,125.088,59.002,63.719z"/>
		<path fill="none" stroke="#FFFFFF" stroke-width="5" stroke-miterlimit="10" d="M41.198,234.983c67.498,0,134.996,0,202.494,0"/>
		<path fill="none" stroke="#FFFFFF" stroke-width="5" stroke-miterlimit="10" d="M30.529,200.763c74.61,0,149.219,0,223.83,0"/>
		<path fill="none" stroke="#FFFFFF" stroke-width="5" stroke-miterlimit="10" d="M26.966,164.671c76.986-0.003,153.972,0,230.957,0
			"/>
		<path fill="none" stroke="#FFFFFF" stroke-width="5" stroke-miterlimit="10" d="M30.528,128.586c74.61,0,149.22,0,223.831,0"/>
		<path fill="none" stroke="#FFFFFF" stroke-width="5" stroke-miterlimit="10" d="M41.198,94.364c67.498-0.002,134.997,0,202.495,0"
			/>
		<path fill="none" stroke="#FFFFFF" stroke-width="5" stroke-miterlimit="10" d="M198.06,63.719
			c28.807,62.898,28.804,139.008,0,201.906"/>
		<path fill="none" stroke="#FFFFFF" stroke-width="5" stroke-miterlimit="10" d="M170.272,63.719
			c14.928,65.454,14.93,136.452,0,201.906"/>
		<path fill="none" stroke="#FFFFFF" stroke-width="5" stroke-miterlimit="10" d="M142.446,63.719
			c-0.003,67.302-0.003,134.604,0,201.906"/>
		<path fill="none" stroke="#FFFFFF" stroke-width="5" stroke-miterlimit="10" d="M114.617,63.719
			c-14.92,65.468-14.921,136.438,0,201.906"/>
		<path fill="none" stroke="#FFFFFF" stroke-width="5" stroke-miterlimit="10" d="M86.831,63.719
			c-28.804,62.902-28.8,139.003,0,201.906"/>
	</g>
</g>
<polygon fill="none" stroke="#000000" stroke-width="25" stroke-miterlimit="10" points="272.308,239.434 142.405,314.434 
	12.5,239.434 12.5,89.434 142.405,14.434 272.308,89.434 "/>
</svg>
